<svg xmlns="http://www.w3.org/2000/svg" width="125" height="125" viewBox="0 0 125 125"><g fill="none" fill-rule="evenodd"><path fill="#00F4A3" d="M1.4916,0 C0.6678,0 0,0.6679 0,1.4917 L0,123.5049 C0,124.3289 0.6678,124.9969 1.4916,124.9969 L123.508,124.9969 C124.332,124.9969 125,124.3289 125,123.5049 L125,1.4917 C125,0.6679 124.332,0 123.508,0 L1.4916,0 Z"/><path fill="#011163" fill-rule="nonzero" d="M16.9817 88.2959C19.9607 87.4919 22.7182 89.8249 22.8552 92.7079L22.8552 92.7079 22.855992 107.199412C22.856883 108.840467 22.8587765 110.667841 22.8628 112.7029 22.8679 112.8359 22.8464 112.9679 22.7993 113.0909 22.7523 113.2149 22.6807 113.3279 22.589 113.4239 22.4972 113.5189 22.3871 113.5949 22.2653 113.6469 22.1435 113.6989 22.0125 113.7249 21.8801 113.7249 21.7477 113.7249 21.6167 113.6989 21.4949 113.6469 21.3731 113.5949 21.263 113.5189 21.1712 113.4239 21.0795 113.3279 21.0079 113.2149 20.9609 113.0909 20.9138 112.9679 20.8922 112.8359 20.8974 112.7029L20.8974 112.7029 20.8974 105.9269 15.5104 105.9269 15.5104 112.7029C15.5004 112.9579 15.3924 113.1979 15.2089 113.3749 15.0254 113.5509 14.7807 113.6499 14.5262 113.6499 14.2716 113.6499 14.027 113.5509 13.8435 113.3749 13.66 113.1979 13.5519 112.9579 13.5419989 112.7029L13.5419989 112.7029 13.5419989 92.7909C13.5413 91.7679 13.878 90.7729 14.4998 89.9609 15.1216 89.1479 15.9939 88.5629 16.9817 88.2959ZM68.6518 96.3919 68.6518 112.6569C68.6518 112.9299 68.5431 113.1929 68.3497 113.3859 68.1562 113.5799 67.8938 113.6879 67.6202 113.6879L67.6202 113.6879 67.307 113.6879C67.0965 113.6879 66.8913 113.6239 66.7187 113.5029 66.5461 113.3829 66.4145 113.2129 66.3416 113.0149L66.3416 113.0149 62.4259 101.0409 62.4259 112.6159C62.4259 113.5559 61.3295 114.0469 60.6684 113.3859 60.5726 113.2899 60.4966 113.1759 60.4449 113.0509 60.3932 112.9259 60.3668 112.7919 60.3671955 112.6569L60.3671955 112.6569 60.3671955 96.5759 62.9621 96.5469 66.5961 106.3689 66.5961 106.3689 66.5960204 102.599267C66.5959827 102.5027 66.5959424 102.40765 66.5958996 102.314095L66.5950893 101.019871C66.5950253 100.940664 66.5949596 100.862833 66.5948923 100.786352L66.5940184 99.9319204C66.5939408 99.8658685 66.5938623 99.8010724 66.5937829 99.7375083L66.5930505 99.1980514C66.5929676 99.1416647 66.5928842 99.0864383 66.5928007 99.0323485L66.592047 98.5755836C66.5919636 98.5280985 66.5918803 98.4816785 66.5917974 98.4362995L66.5910662 98.0553555C66.5909871 98.0160086 66.5909087 97.9776314 66.5908314 97.9401998L66.5901664 97.6282055C66.5900964 97.5962334 66.5900278 97.5651355 66.5899609 97.5348878L66.5890959 97.1419612C66.5890488 97.1196199 66.589004 97.0980095 66.5889618 97.0771062L66.5889217 96.5679752C66.5889704 96.5614252 66.5890236 96.5552721 66.5890815 96.5494922L66.5897316 96.5069025C66.5898187 96.5031466 66.5899109 96.4996921 66.5900083 96.4965153L66.5906568 96.480596C66.5907758 96.4784345 66.5909004 96.476503 66.5910306 96.4747776 66.5923426 96.4637182 66.5928576 96.4621544 66.5934308 96.4613719L66.5976 96.4609 68.6518 96.3919ZM50.4756 96.3379C50.8626 96.3649 53.3295 96.4329 55.3581 96.4889 56.0989 96.5099 56.8021 96.8189 57.3185 97.3499 57.8348 97.8819 58.1235 98.5939 58.1232002 99.3349L58.1232002 99.3349 58.1232002 102.5519C58.1232002 104.1479 57.2843 105.2379 55.9846 105.7139 56.19424 106.3907 56.660884 107.90954 57.1402144 109.473596L57.332044 110.099741C57.5871747 110.93278 57.836648 111.74846 58.0434 112.4259 58.0711 112.5189 58.0853 112.6159 58.0855 112.7119 58.0852 112.9459 58.0011 113.1719 57.8485 113.3489 57.6959 113.5259 57.4848 113.6429 57.2536 113.6779 57.0224 113.7129 56.7864 113.6629 56.5884 113.5389 56.3904 113.4149 56.2435 113.2229 56.1744 112.9999L56.1744 112.9999 54.0087 106.0329 52.5343 106.0329 52.5343 112.7529C52.5343 113.9989 50.4756 113.9929 50.4756 112.7529L50.4756 112.7529ZM74.7453 96.0699C75.6352 96.0049 76.5259 96.1859 77.3191 96.5949 77.8634 96.8799 78.3437 97.2729 78.7302 97.7499 79.3915 98.5689 79.752 99.5899 79.751301 100.6419L79.751301 100.6419 79.751301 112.7059C79.7413 112.9599 79.6335 113.2009 79.4503 113.3769 79.2671 113.5529 79.0228 113.6509 78.7686 113.6509 78.5145 113.6509 78.2702 113.5529 78.087 113.3769 77.9038 113.2009 77.7959 112.9599 77.7859 112.7059L77.7859 112.7059 77.7859 105.8499 72.4004 105.8499 72.4004 112.7059C72.4004 112.9669 72.2969 113.2169 72.1128 113.4009 71.9286 113.5849 71.6789 113.6879 71.4184 113.6879 71.158 113.6879 70.9083 113.5849 70.7241 113.4009 70.54 113.2169 70.4365 112.9669 70.4365 112.7059L70.4365 112.7059 70.4365 100.6509C70.437 99.4829 70.8829 98.3579 71.6835 97.5069 72.484 96.6559 73.579 96.1419 74.7453 96.0699ZM41.1523 95.5489C41.8978 95.6449 42.7984 95.7489 43.8029 95.8499 45.1388 95.9839 46.6584 96.1129 48.2532 96.2139L48.2532 96.2139 48.2532 98.2849C46.4912 98.1659 44.806 98.0319 43.2141 97.8649L43.2141 97.8649 43.2141 104.2079 46.8572 104.2079C47.9566 104.2079 47.9535 106.0469 46.8572 106.0469L46.8572 106.0469 43.2141 106.0469 43.2141 111.8479 47.5093 111.8479C48.0153 111.8479 48.33 112.2799 48.33 112.7699 48.33 113.2589 48.0153 113.6879 47.5093 113.6879L47.5093 113.6879 42.1825 113.6879C41.6267 113.6879 41.1523 113.3219 41.1523 112.7529L41.1523 112.7529ZM31.8166 93.7789C31.9726 93.7489 32.1333 93.7559 32.2862 93.7989 33.0106 94.0009 33.7787 94.1959 34.5452 94.3799 35.482 94.6109 36.4217 94.8139 37.2892 94.9829 37.7741 95.0789 38.2365 95.1599 38.6642 95.2299L38.6642 95.2299C38.9385 95.2729 39.1801 95.4209 39.3404 95.6429 39.5007 95.8639 39.5665 96.1399 39.5234 96.4089 39.4802 96.6789 39.3317 96.9209 39.1104 97.0809 38.8891 97.2409 38.6132 97.3069 38.3434 97.2639 37.9503 97.1929 37.5317 97.1259 37.0979 97.0429 36.8329 96.9929 36.5633 96.9399 36.2862 96.8829L36.2862 96.8829 36.2862 112.7529C36.2862 113.3219 35.8118 113.6879 35.2576 113.6879 34.7034 113.6879 34.2275 113.3219 34.2275 112.7529L34.2275 112.7529 34.2275 96.4219C33.3901 96.2249 32.5482 96.0109 31.7335 95.7839 31.5167 95.7229 31.3258 95.5929 31.1898 95.4129 31.0538 95.2339 30.9803 95.0149 30.9804996 94.7899 30.9804 94.6309 31.0171 94.4739 31.0877 94.3319 31.1582 94.1899 31.2608 94.0659 31.3872 93.9699 31.5137 93.8739 31.6607 93.8089 31.8166 93.7789ZM25.6766 90.7869C25.8121 90.7869 25.9464 90.8129 26.0716 90.8649 26.1969 90.9169 26.3107 90.9929 26.4065 91.0889 26.5023 91.1839 26.5783 91.2979 26.6301 91.4229 26.6819 91.5489 26.7084 91.6829 26.7082 91.8179L26.7082 91.8179 26.7082 111.8479 31.0034 111.8479C31.5094 111.8479 31.8287 112.2789 31.8287 112.7679 31.8287 113.2579 31.5094 113.6869 31.0034 113.6869L31.0034 113.6869 25.6766 113.6869C25.1224 113.6869 24.6464989 113.3209 24.6464989 112.7519L24.6464989 112.7519 24.6464989 91.8179C24.6463 91.6829 24.6728 91.5489 24.7245 91.4239 24.7761 91.2989 24.852 91.1849 24.9477 91.0889 25.0433 90.9929 25.157 90.9169 25.282 90.8649 25.4071 90.8139 25.5412 90.7869 25.6766 90.7869ZM109.79 88.7279C109.94 88.7239 110.089 88.7649 110.216 88.8459 110.344 88.9259 110.445 89.0419 110.506 89.1799 110.774 89.7239 110.534 90.5719 109.79 90.5719L105.494 90.5719 105.494 104.2139 109.14 104.2139C110.235 104.2139 110.232 106.0549 109.14 106.0549L105.494 106.0549 105.494 111.8559 109.79 111.8559C110.883 111.8479 110.886 113.6869 109.79 113.6869L104.463 113.6869C103.909 113.6869 103.433 113.3219 103.433 112.7529L103.433 89.6629C103.433 89.0939 103.909 88.7279 104.463 88.7279L109.79 88.7279ZM96.993 90.2359C98.766 90.2359 100.227 91.0109 100.922 92.2329 101.036 92.4089 101.102 92.6119 101.115 92.8209 101.115 93.3589 100.606 93.7549 100.037 93.7549 99.851 93.7579 99.668 93.7099 99.508 93.6139 99.349 93.5189 99.219 93.3809 99.133 93.2159 98.704 92.5019 97.897 92.1059 96.978 92.1059 95.446 92.1059 94.568 93.1299 94.267 94.6659 94.185 95.0969 94.145 95.5339 94.148 95.9719L94.1488552 98.1886825C94.1505734 99.1751946 94.1544266 99.6483379 94.1561448 100.34092L94.1569407 100.864464C94.1569796 100.928533 94.157 100.9949 94.157 101.0639L94.157 101.3529 94.1569959 101.693461 94.1569959 101.693461 94.1561152 103.587792C94.1550828 104.548717 94.1528462 105.620131 94.148 106.8139L94.148 107.9519 94.148 107.9519C94.145 108.3899 94.185 108.8269 94.267 109.2579 94.568 110.7969 95.454 111.8179 96.978 111.8179 97.897 111.8179 98.704 111.4219 99.133 110.7069 99.219 110.5419 99.349 110.4039 99.508 110.3089 99.668 110.2139 99.851 110.1649 100.037 110.1689 100.603 110.1689 101.115 110.5629 101.115 111.1029 101.102 111.3119 101.036 111.5149 100.922 111.6909 100.227 112.9129 98.766 113.6869 96.993 113.6869 93.799 113.6869 92.121 111.3839 92.049 108.1689L92.049 95.7539 92.049 95.7539C92.121 92.5379 93.799 90.2359 96.993 90.2359ZM90.024 94.2539 90.024 112.6539C90.024 112.9269 89.915 113.1899 89.722 113.3829 89.528 113.5769 89.266 113.6849 88.992 113.6849L88.992 113.6849 88.679 113.6849C88.468 113.6849 88.263 113.6199 88.09 113.4999 87.917 113.3799 87.785 113.2099 87.711 113.0119L87.711 113.0119 83.795 101.0379 83.795 112.6099C83.795 113.5539 82.696 114.0439 82.035 113.3829 81.8419 113.1889 81.7336 112.9269 81.7334 112.6539L81.7334 112.6539 81.7329978 96.3394258 81.7295 96.3419 81.7295 95.5049C82.358 95.4419 83.068 95.3679 83.85 95.2749L83.85 95.2749 83.8719978 95.3344258 83.876 95.3329 87.962 106.3659C87.962 106.227622 87.9619988 106.090988 87.9619963 105.955977L87.96104 100.381852C87.9610089 100.296378 87.9609773 100.212195 87.9609452 100.129281L87.9599997 98.1850373C87.9599628 98.1234024 87.9599258 98.0628613 87.9598888 98.0033943L87.9590141 96.7723746C87.9589791 96.7288378 87.9589444 96.6862181 87.95891 96.6444958L87.9580178 95.6424416C87.9579941 95.6167059 87.9579711 95.5916713 87.9579489 95.5673182L87.9579671 94.752948C87.9579959 94.7485623 87.9580263 94.7444458 87.9580585 94.740579L87.9589956 94.6893424C87.9590533 94.6880088 87.9591131 94.6867875 87.9591749 94.6856589 87.9598606 94.6767214 87.959937 94.6760054 87.9600155 94.6753034 87.9608746 94.6680423 87.9609689 94.6672034 87.9610656 94.6663L87.961674 94.6599496 87.962 94.6559C88.325 94.5919 88.895 94.4799 89.348 94.3909L89.348 94.3909 90.024 94.2539ZM18.8027 90.1699C18.2083 90.0349 17.5856 90.1049 17.0362 90.3699 16.4869 90.6339 16.0435 91.0769 15.7784 91.6259 15.6824 91.8239 15.6115 92.0329 15.5676 92.2489 15.5622202 92.2727652 15.5573127 92.2915401 15.5528381 92.3095927L15.5444547 92.3460291 15.5444547 92.3460291 15.5406742 92.3659517C15.5394582 92.3729437 15.538286 92.3803408 15.5371562 92.3883048L15.533892 92.414059C15.5208078 92.529802 15.5141061 92.759394 15.5109499 93.4188064L15.5102591 93.5854796C15.5101548 93.6146879 15.5100558 93.6446243 15.5099619 93.675309L15.5090703 94.0807427C15.5090146 94.117738 15.5089633 94.1555626 15.5089162 94.1942367L15.508921 96.3735391C15.5089564 96.4399625 15.5089936 96.5075184 15.5090322 96.5762272L15.5098503 97.9418583C15.5099004 98.025129 15.5099508 98.1096738 15.5100016 98.195513L15.5108994 99.8847792C15.5109462 99.9868789 15.5109923 100.090394 15.5110372 100.195346L15.5119 104.2069 20.8974 104.2069 20.8989 93.2429 20.8989 92.7909C20.8976 92.1819 20.6895 91.5909 20.3088 91.1149 19.928 90.6379 19.3971 90.3059 18.8027 90.1699ZM52.5343 98.4909 52.5343 104.2009 54.0886 104.2009C55.2452 104.2009 56.0373002 103.6719 56.0373002 102.5439L56.0373002 102.5439 56.0373002 100.0439C56.0375 99.6559 55.8859 99.2829 55.615 99.0049 55.3441 98.7259 54.9752 98.5649 54.587 98.5549 54.4958875 98.5524 54.403175 98.5498375 54.3097242 98.5472281L53.7470539 98.5311344C53.2822687 98.5174625 52.8421125 98.5034 52.5343 98.4909L52.5343 98.4909ZM75.1378703 98.1271128 74.923 98.1329 74.8959 98.1329C74.3799 98.1659 73.8849 98.3499 73.4727 98.6619L73.4727 98.6619 73.4365 98.6899C73.3823 98.7289 73.3191 98.7819 73.2859 98.8119 73.2528 98.8419 73.2212 98.8739 73.1895 98.9059L73.1142 98.9809C73.0781 99.0199 73.0435 99.0619 73.0088 99.1039L73.0088 99.1039 72.9576 99.1659C72.9245 99.2099 72.8808 99.2749 72.8642 99.2989 72.8477 99.3229 72.8416 99.3289 72.816 99.3689 72.7904 99.4099 72.7618 99.4629 72.7438 99.4939 72.7257 99.5259 72.7106 99.5499 72.6925 99.5859 72.6745 99.6219 72.6594 99.6589 72.6413 99.6979 72.6233 99.7369 72.6052 99.7749 72.5901 99.8139L72.5901 99.8139 72.5555 99.9129C72.5404 99.9579 72.5194 100.0199 72.5103 100.0499L72.5027407 100.075789C72.4982889 100.091789 72.4942667 100.108233 72.4862 100.1429 72.4742 100.1959 72.4591 100.2549 72.4516 100.2939 72.4441 100.3329 72.441 100.3709 72.435 100.4129 72.429 100.4549 72.4169 100.4969 72.4169 100.5409 72.4084 100.6249 72.4044 100.7099 72.4048583 100.7939L72.4048583 100.7939 72.4048583 104.1309 77.7874 104.1149 77.7874 104.1149 77.7874 100.7749C77.7874 100.6809 77.7829 100.5889 77.7739 100.4969 77.7679 100.4429 77.7543 100.3739 77.7483 100.3379 77.7423 100.3019 77.7392 100.2639 77.7317 100.2279 77.7182 100.1679 77.7016 100.1089 77.685 100.0499 77.6775 100.0229 77.6715 99.9939 77.6624 99.9669 77.6459 99.9119 77.6142 99.8349 77.6022 99.8049L77.6022 99.8049 77.5825481 99.7491963 77.5825481 99.7491963 77.5676 99.7129C77.548 99.6689 77.5254 99.6249 77.5043 99.5819L77.5043 99.5819 77.4471 99.4689C77.429 99.4369 77.4169 99.4209 77.3883 99.3749 77.3597 99.3299 77.3326 99.2839 77.301 99.2379 77.2874 99.2189 77.2709 99.2009 77.2573 99.1809 77.2166 99.1329 77.1775 99.0799 77.1338 99.0309L77.1338 99.0309 77.1022 98.9959C77.0555 98.9489 77.0058 98.8949 76.9516 98.8449L76.9516 98.8449 76.9185 98.8169C76.8642 98.7689 76.81 98.7199 76.7528 98.6769 76.7272 98.6569 76.7166 98.6529 76.673 98.6209 76.6293 98.5889 76.5871 98.5579 76.5404 98.5289 76.4862 98.4959 76.4305 98.4639 76.3733 98.4339 75.9261 98.2039 75.4248 98.0999 74.923 98.1329ZM26.8857 17.0718C27.7607 18.0492 27.0996 19.5914 25.7924 19.5914L25.6824 19.5914C25.6139 19.5917 25.5454 19.5867 25.4776 19.5763 25.2706 19.5413 25.0726 19.4657 24.895 19.3538 24.7174 19.2419 24.5638 19.0959 24.443 18.9242 23.6899 17.9182 22.5574 17.4182 21.2005 17.4182 19.9068 17.4182 18.7743 17.8851 17.9656 18.7435 17.1568 19.6019 16.6719 20.8564 16.6719 22.4256L16.6719 46.9355C16.6719 48.5047 17.1568 49.7562 17.9656 50.6146 18.7743 51.473 19.9068 51.9384 21.2005 51.9384 22.5559 51.9384 23.693 51.4429 24.443 50.4324 24.563 50.2603 24.7162 50.114 24.8937 50.002 25.0711 49.89 25.2691 49.8146 25.4761 49.7803 25.6854 50.7938 25.9686 51.8315 26.2848 52.8751 22.2035 56.4322 14.4279 54.6642 13.6162 48.0801 13.5697 47.7003 13.5465 47.3181 13.5468949 46.9355L13.5468949 22.4256C13.5465 22.0415 13.5697 21.6578 13.6162 21.2766 14.4701 14.349 23.0243 12.7527 26.8857 17.0718ZM109.523 14.7791C109.774 14.675 110.051 14.6478 110.317 14.7007 110.584 14.7536 110.83 14.8844 111.022 15.0765 111.278 15.3353 111.421 15.6852 111.420005 16.0493L111.420005 16.0493 111.420005 51.4911C111.420005 51.7152 111.376 51.9371 111.289 52.1439 111.203 52.3508 111.077 52.5384 110.917 52.6961 110.758 52.8538 110.569 52.9784 110.362 53.0626 110.154 53.1468 109.932 53.1891 109.708 53.1869 109.337 53.1831 108.978 53.0581 108.685 52.8311 108.392 52.604 108.182 52.2873 108.086 51.9294L108.086 51.9294 101.134 25.9587 101.134 51.9294C101.134 52.2941 100.989 52.6438 100.731 52.9016 100.473 53.1595 100.123 53.3044 99.759 53.3044 99.394 53.3044 99.044 53.1595 98.787 52.9016 98.529 52.6438 98.384 52.2941 98.384 51.9294L98.384 51.9294 98.384 16.096C98.384 15.9118 98.421 15.7294 98.493 15.5598 98.565 15.3902 98.67 15.2367 98.802 15.1085 98.935 14.9802 99.091 14.8799 99.263 14.8133 99.435 14.7468 99.618 14.7154 99.802 14.721L99.802 14.721 100.104 14.7301C100.402 14.7397 100.689 14.8459 100.922 15.0328 101.155 15.2196 101.32 15.477 101.394 15.7662L101.394 15.7662 108.671 44.4793 108.671 16.0493C108.672 15.7772 108.753 15.5114 108.905 15.2853 109.056 15.0593 109.271 14.8831 109.523 14.7791ZM35.9704 14.6774C39.5878 14.6442 42.5502 17.8113 42.5502 21.4332L42.5502 21.4332 42.5502 35.8199C42.0457 36.1798 41.5924 36.5232 41.1948 36.8424 40.761 36.8756 40.3318 36.9132 39.9131 36.9554L39.9131 36.9554 39.8032 36.9659 39.8032 33.3214 32.2731 33.3214 32.2731 38.3695C32.1451 38.4117 32.0171 38.4553 31.8875 38.496 31.0682 38.7821 30.2756 39.1394 29.518588 39.5638L29.518588 39.5638 29.518588 21.1907C29.5153 19.473 30.1921 17.8237 31.401 16.6033 32.6098 15.3829 34.2526 14.6905 35.9704 14.6774ZM94.165 14.6728C94.567 14.6728 94.953 14.8326 95.237 15.117 95.522 15.4014 95.682 15.7872 95.682 16.1894L95.682 16.1894 95.682 36.9433C94.921 35.7959 93.876 34.8655 92.648 34.2431L92.648 34.2431 92.648 16.1894C92.648 15.7872 92.808 15.4014 93.093 15.117 93.377 14.8326 93.763 14.6728 94.165 14.6728ZM53.3265 14.6878994C54.4892 14.6878994 55.4907 14.8806 56.3145 15.2902 57.0867 15.6432 57.7326 16.2239 58.1654 16.9544 58.5858 17.6868 58.7998 18.5195 58.7843 19.3639 58.7889 20.1537 58.5908 20.9315 58.209 21.6229 57.7985 22.3636 57.1724 22.9618 56.4139 23.3382 55.6006 23.7704 54.5645 23.9843 53.3265 23.9843L53.3265 23.9843 48.5253 23.9843 48.5253 32.4976C47.4169 32.9735 46.4063 33.475 45.4922 33.981L45.4922 33.981 45.4922 17.62C45.4954 16.841 45.8072 16.095 46.3593 15.5454 46.9115 14.9958 47.6589 14.6874 48.438 14.6878994L48.438 14.6878994ZM82.178 14.6774C85.798 14.6442 88.758 17.8113 88.758 21.4332L88.758 21.4332 88.758 32.9901C88.354 32.9299 87.94 32.8772 87.511 32.8395 87.036 32.7974 86.532 32.7703 86.005 32.7537L86.005 32.7537 86.005 30.308 78.4746 30.308 78.4746 32.8681C77.7111 32.4932 76.7909 32.085 75.7245787 31.686L75.7245787 31.686 75.7245787 21.1907C75.7202 19.4724 76.3968 17.8222 77.6062 16.6015 78.8157 15.3808 80.4595 14.6889 82.178 14.6774ZM36.0381 17.4258C35.0396 17.4258 34.0819 17.8225 33.3758 18.5285 32.6698 19.2346 32.2731 20.1922 32.2731 21.1907L32.2731 21.1907 32.2731 30.9209 39.8032 30.9209 39.8032 21.1907C39.8032 20.1922 39.4065 19.2346 38.7004 18.5285 37.9944 17.8225 37.0367 17.4258 36.0381 17.4258ZM73.757 14.6771849C73.9334 14.676 74.1079 14.713 74.2686 14.7856 74.4294 14.8583 74.5724 14.9649 74.688 15.0982 74.8035 15.2314 74.8887 15.3882 74.9378 15.5576 74.9869 15.727 74.9987 15.905 74.9724 16.0794 74.922 16.373 74.768 16.6389 74.5384 16.8287 74.3088 17.0185 74.0187 17.1198 73.7208 17.114L73.7208 17.114 69.4483 17.114 69.4468 30.1498C68.4889 29.9676 67.4739 29.817 66.4076 29.7086L66.4076 29.7086 66.4076 17.114 62.1727 17.114C61.4769 17.114 60.8549 16.5493 60.8745 15.8595 60.8804 15.5411 61.0122 15.2379 61.2411 15.0163 61.47 14.7948 61.7773 14.6729 62.0959 14.6771849L62.0959 14.6771849ZM82.24 17.4258C81.2411 17.4258 80.2835 17.8225 79.5774 18.5285 78.8713 19.2346 78.4746 20.1922 78.4746 21.1907L78.4746 21.1907 78.4746 27.9074 86.005 27.9074 86.005 21.1907C86.005 20.1922 85.608 19.2346 84.902 18.5285 84.196 17.8225 83.238 17.4258 82.24 17.4258ZM53.194 17.1441 49.4425 17.1441C49.1996 17.1453 48.967 17.2423 48.7953 17.4141 48.6235 17.5858 48.5265 17.8184 48.5253 18.0613L48.5253 18.0613 48.5253 21.5356 53.194 21.5356C54.0283 21.5356 54.6578 21.3488 55.0584 20.9678 55.459 20.5868 55.6609009 20.0431 55.6609009 19.3579 55.6619 17.882 54.8396 17.1441 53.194 17.1441L53.194 17.1441Z"/><path fill="#FFF" d="M94.165 12.4605C95.003 12.4605 95.682 11.7816 95.682 10.944 95.682 10.1064 95.003 9.4275 94.165 9.4275 93.327 9.4275 92.648 10.1064 92.648 10.944 92.648 11.7816 93.327 12.4605 94.165 12.4605ZM96.802 79.1244C96.635 78.6109 96.534 78.2992 95.778 76.3941 94.625 73.483 92.739 68.7256 91.939 64.6474L91.685 63.0842 91.644 62.7694 91.525 61.9457C92.771 59.3524 92.823 56.4835 92.866 54.1537 92.891 52.7095 93.12 50.9173 93.363 49.0183 93.772 45.806 94.197 42.4838 93.735 40.0607 93.132 36.999 89.876 36.0774 87.244 35.844 86.579 35.7852 85.837 35.7551 85.039 35.7551 82.822 35.7797 80.6086 35.9441 78.4123 36.2476 76.1638 34.9554 70.9334 32.5293 63.4033 32.5293 62.2421 32.5293 61.0554 32.588 59.8762 32.704 50.5207 33.6211 44.7331 37.7279 42.3807 39.7821 41.6472 39.8288 40.9183 39.8875 40.209 39.9568 36.8867 40.2836 28.0584 41.1495 28.0991 46.5003 28.1111 48.9385 29.1533 52.0544 30.1533 55.0693L30.1683 55.116C30.7587 56.8765 31.3732 58.6958 31.6849 60.1551 32.1156 62.1414 32.6442 64.5796 33.9545 66.7106 33.3189 69.834 32.5102 71.8535 31.581 74.1743 31.0418 75.5191 30.4846 76.9106 29.8927 78.6651L28.0479 84.1319 30.9725 82.0909C31.1631 82.8089 31.4585 83.4949 31.8491 84.1269L34.8235 89.0399 34.9274 87.9439 36.2828 89.4629 37.0509 89.0489C37.5177 89.4779 38.0468 89.8329 38.6201 90.1029L43.846 92.5439 42.6066 90.2639C43.4575 90.5289 44.2964 90.7359 45.0885 90.9209L45.1563 90.9359 45.2542 90.5189 45.1578 90.9369C47.0177 91.3679 47.6442 91.4339 48.0584 91.4799 48.1503 91.4899 48.2271 91.4979 48.3144 91.5109L49.5795 91.7279 49.6126 91.6719C52.828 92.0519 56.7662 92.2509 61.072 92.2509 65.2888 92.2509 69.7195 92.0579 73.5298 91.7099 73.5825 91.7099 73.6352 91.6989 73.6804 91.6899L74.0735 91.6569C74.9771 91.5839 76.6442 91.4459 78.6126 91.1179 80.5331 90.8089 82.423 90.3339 84.262 89.6979L82.814 92.5039 87.924 90.1049C88.461 89.8489 88.958 89.5169 89.4 89.1199L90.111 89.5339 91.662 87.8669 91.774 88.9009 94.682 84.1289C95.086 83.4809 95.386 82.7739 95.572 82.0339L98.506 83.9919 97.15 80.1515C96.967 79.6289 96.879 79.3654 96.802 79.1244Z"/><path fill="#00F4A3" d="M73.0789,89.2309 C72.2822,87.6499 68.1091,79.6364 67.3937,78.281 C65.9765,75.5703 64.4057,72.5899 62.8079,69.5765 C62.2647,69.6407 61.731,69.7 61.207,69.7542 C61.7973,71.2888 60.8079,73.2721 58.6136,75.751 C57.7793,76.9558 55.478,80.0927 53.1347,83.2809 C53.2277,83.1489 53.3117,83.0109 53.3862,82.8679 C52.7943,83.8949 50.3094,86.8579 48.6377,89.6319 C49.3305,89.7129 51.3606,90.0429 55.5157,90.2339 C61.4723,90.4749 67.4382,90.3369 73.3771,89.8179 C73.0759,89.2159 73.103,89.2729 73.0925,89.2549 C73.0819,89.2369 73.0789,89.2399 73.0789,89.2309 Z M63.4042,88.5959 C63.4042,88.6049 63.4042,88.5959 63.4042,88.5959 L63.3771,88.5959 L63.3636,88.5959 L63.332,88.5959 C63.332,88.5959 63.1814,88.6149 62.966,88.6389 L62.8154,88.6569 L62.7265,88.6569 C62.5669,88.6709 62.3892,88.6859 62.216,88.6939 C61.7642,88.7159 61.3244,88.7219 60.8606,88.7029 C60.3563,88.6829 59.8535,88.6359 59.3545,88.5609 C58.844,88.4899 58.2747,88.3889 57.6211,88.2599 L57.4826,88.2299 L57.4027,88.2129 C57.2642,88.1809 57.1422,88.1469 57.0262,88.1109 L56.9841,88.0969 L56.9208,88.0759 L56.8139,88.0379 L56.8003,88.0379 C56.704,88.0019 56.6106,87.9619 56.5157,87.9159 L56.4555,87.8859 C56.3902,87.8559 56.3239,87.8229 56.2567,87.7869 L56.207,87.7569 C56.1527,87.7279 56.0985,87.6949 56.0443,87.6619 L55.954,87.6059 L55.7582,87.4779 L55.6076,87.3739 L55.4916,87.2899 C55.2844,87.1309 55.0895,86.9559 54.9088,86.7669 L54.8967,86.7569 C54.8139,86.6689 54.7326,86.5789 54.6543,86.4839 L54.6226,86.4449 C54.5413,86.3459 54.463,86.2429 54.3907,86.1349 L54.4585,86.0069 C54.5398,86.0069 54.6271,86.0069 54.7145,86.0189 L54.7747,86.0189 C54.8531,86.0189 54.9253,86.0339 55.0127,86.0439 L55.0428,86.0439 C55.4204,86.0959 55.7946,86.1699 56.1633,86.2659 C56.3018,86.3009 56.4359,86.3349 56.5609,86.3699 C56.7115,86.4119 56.844,86.4529 56.966,86.4919 C57.0579,86.5199 57.1437,86.5509 57.2265,86.5809 L57.3124,86.6139 C57.5895,86.7209 57.7988,86.8249 58.0142,86.9319 C58.4748,87.1629 58.9532,87.3569 59.4449,87.5109 C59.5955,87.5609 59.7371,87.6079 59.8786,87.6529 L59.9374,87.6689 C60.0594,87.7069 60.1799,87.7449 60.3003,87.7789 L60.4103,87.8099 L60.7115,87.8919 L60.8801,87.9349 L61.1196,87.9949 L61.3666,88.0519 L61.5292,88.0899 L61.8304,88.1529 L61.9494,88.1779 C62.2311,88.2359 62.5217,88.2899 62.8274,88.3459 L62.847,88.3459 L62.8711,88.3459 L62.9434,88.3559 L62.9555,88.3559 L63.0127,88.3649 L63.0624,88.3729 L63.1317,88.3829 L63.1452,88.3829 L63.216,88.3939 L63.2401,88.3939 L63.2612,88.3939 L63.2823,88.3939 L63.2898,88.3939 L63.3305,88.3939 L63.353,88.3939 L63.3696,88.3939 L63.4042,88.3939 C63.4042,88.4249 63.4042,88.3219 63.4042,88.4659 L63.4042,88.5959 Z M66.103,81.3352 C65.8711,81.4512 65.1392,81.9919 64.9795,82.4449 C64.8199,82.8979 64.6904,83.6119 63.344,83.6389 C61.9976,83.6669 61.838,82.9589 61.6633,82.5109 C61.4886,82.0639 60.7341,81.552 60.4976,81.4451 C60.2612,81.3382 58.9103,80.9933 59.5549,79.3593 C60.1814,77.7781 61.3877,77.9768 63.2341,77.9768 C65.0232,77.9422 66.2567,77.6139 66.9645,79.2163 C67.6723,80.8186 66.332,81.2177 66.1,81.3352 L66.103,81.3352 Z"/><path fill="#FFF" d="M90.452 39.1917C89.908 38.7399 88.991 38.5065 88.301 38.3649 86.995 38.1089 85.178 38.1074 83.711 38.2249 82.777 38.2925 81.8478 38.4218 80.9307 38.6119 83.199 38.5773 87.693 38.4417 89.709 39.4628 89.917 39.5667 90.107 39.7218 90.131 39.8182 90.184 39.9568 90.066 40.1194 89.962 40.2218 89.229 40.9748 87.187 41.7067 86.187 42.0516 84.717 42.5501 83.736 42.7865 83.515 42.8498 83.515 42.8498 83.801 42.8362 84.297 42.773 84.979 42.6856 85.656 42.563 86.325 42.4055 87.53 42.1284 90.254 41.3724 90.768 40.2474 90.837 40.0863 90.78 39.4718 90.452 39.1917ZM40.341 71.0824 46.7552 72.3565C46.4949 72.8465 46.3434 73.3869 46.311 73.9408 46.2785 74.4946 46.3658 75.049 46.567 75.5661 46.7681 76.0832 47.0784 76.5508 47.4766 76.9371 47.8749 77.3234 48.3517 77.6194 48.8747 77.8047 49.3977 77.9901 49.9544 78.0605 50.5071 78.0113 51.0597 77.962 51.5952 77.7942 52.0772 77.5192 52.5591 77.2443 52.9761 76.8686 53.2997 76.418 53.6233 75.9673 53.8459 75.4522 53.9524 74.9076 53.9705 74.9664 53.9856 75.0251 54.0021 75.0854 54.2336 75.8769 54.3582 76.6959 54.3727176 77.5205 54.3952 80.0958 51.1588 79.1876 46.5639 79.2268 41.969 79.266 39.7039 77.7735 39.6738 74.1697 39.6871 73.1063 39.914 72.0564 40.341 71.0824L40.341 71.0824ZM86.098 70.8536C86.589 71.8899 86.851 73.02 86.866 74.1667 86.836 77.7705 84.569 79.2615 79.9758 79.2238 75.3824 79.1862 72.1475 80.0928 72.1670114 77.519 72.1826 76.6913 72.3082 75.8694 72.5406 75.0748L72.5406 75.0748 72.5903 74.8986C72.6988 75.4531 72.9278 75.977 73.2611 76.4332 73.5944 76.8894 74.0239 77.2668 74.5192 77.5387 75.0145 77.8106 75.5635 77.9704 76.1273 78.0067 76.6912 78.0431 77.2561 77.9551 77.7822 77.749 78.3083 77.5429 78.7827 77.2238 79.1718 76.8142 79.5609 76.4045 79.8553 75.9144 80.0341 75.3784 80.2129 74.8425 80.2718 74.2738 80.2065 73.7125 80.1413 73.1513 79.9535 72.6113 79.6565 72.1306L79.6565 72.1306 79.7499 72.1126ZM89.972 44.541C89.47 46.6373 88.942 48.6343 88.281 50.6372 85.153 51.83 81.5999 52.4324 78.3408 53.0468L78.3408 53.0468 77.5486 53.1974 77.4402 53.2185 77.3348 53.2381 77.1842 53.2682 77.0622 53.2908 76.9462 53.3149 76.8318 53.3374C77.3017 53.2832 77.8062 53.2667 79.5984 53.0363 82.494 52.6628 85.497 52.0664 88.183 50.9143 87.362 53.4427 86.28 55.8789 84.955 58.1837 84.779 58.2364 83.315 58.6611 82.894 58.7771 82.71 58.8283 82.525 58.878 82.336 58.9277 81.9613 59.0271 81.5788 59.1219 81.1947 59.2123 80.8544 59.2976 80.5155 59.3795 80.1782 59.4578L80.1782 59.4578 79.9176 59.5165C79.5803 59.5933 79.2474 59.6656 78.9237 59.7334 78.5095 59.8177 78.1149 59.8945 77.7414 59.9683L77.7414 59.9683 77.7023 59.9683C77.4297 60.0225 77.1661 60.0722 76.9206 60.1099 76.3303 60.2093 75.8438 60.3056 75.4959 60.3599L75.4959 60.3599 75.3574 60.3824 75.2369 60.4035 75.1164 60.4246 75.0773 60.4246 74.9493 60.4472 75.1164 60.4382 75.2836 60.4382 75.5035 60.4291 75.6541 60.4201C75.9959 60.3975 76.4432 60.3704 76.9628 60.3117 77.261 60.277 77.5848 60.2394 77.9267 60.1942L77.9267 60.1942 78.3423 60.1355 78.3905 60.1355C78.5848 60.1068 78.8077 60.0722 78.9929 60.0391 79.1782 60.0059 79.3664 59.9698 79.5562 59.9322 79.7459 59.8945 79.9372 59.8569 80.13 59.8162 80.5155 59.7364 80.9071 59.6626 81.2941 59.5617 81.6812 59.4608 82.065 59.3569 82.442 59.2499 82.693 59.1777 82.945 59.1024 83.195 59.0271 83.747 58.8614 84.296 58.6701 84.747 58.5015 84.161 59.4761 83.516 60.415 82.818 61.3131L82.818 61.3131 82.809 61.3252C81.7751 62.6592 80.6057 63.8825 79.3197 64.9757 78.9312 65.1142 78.5276 65.2573 78.1149 65.3989 77.7023 65.5404 77.2776 65.682 76.8499 65.8175 76.5557 65.9139 76.2615 66.0078 75.9673 66.0992 75.7715 66.1594 75.5773 66.2196 75.383 66.2769 74.3664 66.5826 73.395 66.8491 72.5863 67.0615L72.5863 67.0615 72.3709 67.1172C72.0878 67.191 71.8273 67.2573 71.5969 67.3145L71.5969 67.3145 71.3755 67.3702 71.124 67.432C70.7983444 67.5116444 70.5756494 67.5639457 70.4927556 67.5832576L70.4568 67.5916 70.9327 67.56 70.9643 67.56 71.1872 67.5434 71.2294 67.5434 71.6571 67.5103 71.8815 67.4922C72.1134 67.4741 72.3694 67.4515 72.645 67.4274 73.2008 67.3777 73.8348 67.3145 74.5125 67.2392 74.7826 67.2091 75.0592 67.1769 75.3423 67.1428L75.3423 67.1428 75.7685 67.0901 76.3363 67.0148 64.6872 68.8732C63.9975 68.9856 63.3052 69.086 62.6104 69.1744 62.0848 69.2421 61.5577 69.3024 61.0306 69.3581L61.0306 69.3581 60.6752 69.3958C60.0035 69.461 59.3318 69.5167 58.6601 69.5629 57.9884 69.6091 57.3157 69.6442 56.642 69.6683L56.642 69.6683 56.0743 69.6834 56.0502 69.6834C55.7896 69.6894 55.5276 69.6985 55.267 69.6985L55.267 69.6985 55.1631 69.6985 54.6225 69.706 53.5697 69.706C52.9839 69.6985 52.3996 69.6789 51.8137 69.6548L51.8137 69.6548 51.2836 69.6307 50.9703 69.6307C50.1671 69.5855 49.3639 69.5238 48.5607 69.4455L48.5607 69.4455 48.0923 69.3988C45.8378 69.1608 41.4929 68.569 39.4719 67.5223 39.3348 67.4515 39.2008 67.3777 39.0712 67.3009 41.4312 68.0027 44.0005 68.4726 47.505 68.6051L47.505 68.6051 47.6029 68.6051C47.2972 68.5373 44.0456 68.2316 40.5667 66.9907 39.9538 66.7723 39.3393 66.5284 38.749 66.2708 38.2505 66.051 38.0065 65.929 37.7309 65.7965 37.5487 65.7091 37.3333 65.6067 37.0607 65.4561 36.7788 65.0648 36.53 64.6507 36.3167 64.2182L36.3167 64.2182 36.2851 64.1549C36.2294 64.0405 36.1737 63.923 36.121 63.804 36.0487 63.6293 35.9703 63.4486 35.8981 63.2664 35.874 63.2016 35.8469 63.1369 35.8228 63.0706 35.3974 61.8582 35.0542 60.6185 34.7956 59.3599 34.7444 59.1626 34.6962 58.9623 34.645 58.7575 34.3559 57.6144 33.9493 56.3464 33.5155 55.0543 33.3423 54.5377 33.1646 54.0151 32.9884 53.4956 31.7324 49.7758 31.6511 49.1026 31.5547 48.7623 34.9688 49.7999 38.4297 49.8481 41.9764 49.5619 41.7836 49.5469 39.0381 49.5951 36.2113 49.1102 35.1149 48.9241 34.0352 48.6506 32.9824 48.2924 42.5923 50.1131 72.2324 46.6855 82.273 44.5756 80.4884 45.2112 78.4417 45.806 76.5893 46.2654 74.4809 46.7864 73.0321 47.0199 72.3724 47.1494 75.4794 47.059 75.5743 47.0891 78.6149 46.8045 77.9056 46.8482 83.82 46.431 89.972 44.541ZM62.261 50.2878C61.2143 49.9836 60.1631 50.7953 60.258 51.833 60.2822 52.0608 60.36 52.2796 60.4851 52.4715 60.6103 52.6634 60.7792 52.8229 60.9779 52.9369 61.0344 52.9707 61.0933 53.0003 61.1541 53.0257 61.1586 53.1341 61.1752 53.3359 61.1752 53.3947 60.8032 53.4655 60.6661 53.3495 59.6435 53.72 59.5864 53.742 59.5327 53.7719 59.4839 53.8088 59.4178 53.8632 59.3657 53.9325 59.3319 54.0111 59.2981 54.0897 59.2836 54.1753 59.2896 54.2606L59.2896 54.2606 59.3228 54.61C59.3283 54.6812 59.3494 54.7503 59.3845 54.8125 59.4197 54.8747 59.468 54.9284 59.5261 54.9699 59.597 55.0211 59.6791 55.0546 59.7655 55.0678 59.8484 55.0814 59.999 55.1025 60.1496 55.119 60.2761 55.1326 60.4131 55.1492 60.5426 55.1492L60.5426 55.1492 60.8212 55.1492 61.2731 55.104C61.2866 55.3464 61.3002 55.5964 61.3167 55.857 61.3333 56.1175 61.3484 56.3871 61.3649 56.6627 61.3815 56.9383 61.3996 57.2199 61.4161 57.5045 61.4734 58.4337 61.5321 59.3945 61.5863 60.2861 61.6164 60.765 61.6435 61.2213 61.6706 61.6414 61.6758 61.7315 61.6677 61.8218 61.6465 61.9095 61.6375 61.9426 61.6285 61.9773 61.6164 62.0089 61.5763 62.1135 61.5159 62.2092 61.4387 62.2905L61.4387 62.2905 61.4312 62.2996C61.3966 62.335 61.3593 62.3677 61.3197 62.3975L61.3197 62.3975 61.2911 62.4185C61.2569 62.4419 61.2212 62.4631 61.1842 62.4818L61.1842 62.4818 61.1315 62.5074C61.0413 62.5481 60.9452 62.5741 60.8469 62.5842 60.8082 62.5864 60.7695 62.5864 60.7309 62.5842 60.6802 62.582 60.6298 62.5755 60.5803 62.5646L60.5803 62.5646 60.5697 62.5646C60.5093 62.5512 60.4503 62.5321 60.3935 62.5074 59.8917 62.2936 59.4326 61.991 59.0381 61.6143 59.1886 61.5843 59.3355 61.5384 59.4764 61.4773 59.4984 61.4685 59.5191 61.4568 59.5381 61.4427 59.5743 61.4137 59.6014 61.375 59.6164 61.3312 59.624 61.3093 59.6285 61.2865 59.63 61.2634 59.6294 61.2267 59.6201 61.1905 59.6029 61.158 59.5781 61.1102 59.5384 61.0716 59.4899 61.0481 59.3507 60.98 59.2176 60.8999 59.0923 60.8086 59.0542 60.7825 59.015 60.7539 58.9749 60.7228 58.8387 60.6183 58.7108 60.5035 58.5923 60.3794 58.2934 60.0735 58.0688 59.7031 57.9357 59.2966 57.9231 59.2614 57.9018 59.2298 57.874 59.2048 57.8325 59.1665 57.7795 59.1432 57.7234 59.1385L57.7234 59.1385 57.6797 59.1385C57.6404 59.1428 57.6028 59.1567 57.5702 59.179 57.5376 59.2014 57.5111 59.2314 57.4929 59.2665 57.2738 59.7202 57.1704 60.221 57.1917 60.7243 57.1989 61.01 57.2389 61.294 57.3107 61.5707 57.4008 61.9076 57.5318 62.2323 57.7008 62.5375 57.721 62.572 57.7494 62.601 57.7836 62.6218 57.8178 62.6425 57.8566 62.6545 57.8965 62.6565 57.9095 62.6587 57.9227 62.6587 57.9357 62.6565 57.9702 62.6526 58.0034 62.6415 58.0333 62.6238 58.0631 62.6062 58.0889 62.5824 58.1089 62.5541L58.1089 62.5541 58.1209 62.5375C58.1405 62.5112 58.1581 62.4835 58.1737 62.4547 58.2916 62.6376 58.4295 62.8068 58.5848 62.9592 58.6601 63.0345 58.7354 63.1053 58.8107 63.17 59.3348 63.6278 59.8453 63.8658 60.4282 64.1384L60.4282 64.1384 60.4959 64.17C60.6496 64.2498 60.8062 64.3176 60.9718 64.4004 61.6949 64.7596 62.3737 65.2018 62.9944 65.7181 63.0204 65.7374 63.0494 65.7522 63.0803 65.7618 63.1105 65.7708 63.1422 65.7739 63.1737 65.7708 63.2376 65.7638 63.2967 65.7332 63.3393 65.685 63.7062 65.2348 64.1091 64.8152 64.5441 64.4305 64.636 64.3537 64.7249 64.2754 64.8122 64.2031 64.9432 64.0947 65.0697 63.9953 65.1932 63.9019L65.1932 63.9019 65.3152 63.8101 65.5517 63.6339C65.6676 63.5495 65.7806 63.4652 65.8905 63.3824 66.3747 63.0379 66.7943 62.6107 67.13 62.1203 67.2496 61.9388 67.3505 61.7455 67.4312 61.5436L67.4312 61.5436 67.4658 61.5812 67.4929 61.6083 67.514 61.6264C67.5266 61.6392 67.5408 61.6503 67.5562 61.6595 67.5705 61.6689 67.5863 61.6761 67.6029 61.6806 67.6357 61.6922 67.6707 61.6963 67.7053 61.6927 67.7168 61.6918 67.7281 61.6887 67.7384 61.6836 67.7773 61.6757 67.8135 61.6576 67.8431 61.6311 67.8727 61.6047 67.8948 61.5708 67.9071 61.533 67.9084 61.5307 67.9091 61.5281 67.9091 61.5255L67.9091 61.5255C68.1991 60.6584 68.1675 59.7219 67.8182 58.884 67.7272 58.6698 67.6104 58.4675 67.4703 58.2816 67.447 58.2512 67.4168 58.2267 67.3823 58.2099 67.3478 58.1932 67.3099 58.1847 67.2715 58.1852L67.2715 58.1852 67.2497 58.1897 67.2497 58.1897 67.2279 58.1942C67.1839 58.2067 67.1445 58.2317 67.1146 58.2662 67.0846 58.3008 67.0654 58.3432 67.0592 58.3885 66.9267 59.649 65.8815 60.4111 65.8725 60.4111 65.8363 60.4384 65.8086 60.4755 65.7926 60.518 65.776 60.5596 65.7718 60.6051 65.7806 60.649 65.7889 60.684 65.8054 60.7165 65.8288 60.7439 65.8436 60.7617 65.8608 60.7774 65.88 60.7906 65.9059 60.8095 65.9358 60.8224 65.9673 60.8282L65.9673 60.8282 66.005 60.8282C66.1447 60.8568 66.287 60.8715 66.4297 60.8719 66.2 61.2026 65.9246 61.4992 65.6119 61.7529 65.5035 61.8417 65.3905 61.9291 65.27 62.0119L65.27 62.0119 65.252 62.024C65.2076 62.0531 65.1607 62.0783 65.1119 62.0993 65.0738 62.1164 65.0345 62.131 64.9944 62.1429 64.9613 62.152 64.9116 62.1565 64.892 62.1655 64.8725 62.1746 64.8544 62.1746 64.8348 62.1746 64.7802 62.1791 64.7253 62.1791 64.6706 62.1746 64.6152 62.1694 64.5604 62.1599 64.5065 62.1459 64.4549 62.1313 64.4045 62.1127 64.3559 62.0902 64.2604 62.0457 64.1733 61.9851 64.0984 61.911L64.0984 61.911 64.0788 61.8944C63.951 61.7609 63.8697 61.5898 63.8468 61.4065 63.8333 61.3026 63.8197 61.1957 63.8047 61.0888 63.7023 60.3252 63.5863 59.4623 63.4673 58.5858L63.4673 58.5858 63.4447 58.4201C63.4327 58.3328 63.4206 58.2439 63.4101 58.1566 63.3077 57.3976 63.2505 56.9774 63.2203 56.759 63.1993 56.6039 63.1345 56.119 62.9734 54.9217L62.9734 54.9217 63.252 54.8946C63.3977 54.8853 63.5427 54.8657 63.6857 54.8359 63.9416 54.773 64.1931 54.6935 64.4387 54.598 64.549 54.5622 64.6436 54.4895 64.7064 54.3921 64.7693 54.2947 64.7965 54.1785 64.7836 54.0633 64.7414 53.8299 64.7971 53.6115 64.6044 53.4127 64.5223 53.3321 64.4169 53.2794 64.3032 53.2622 63.7867 53.1647 63.2572 53.158 62.7384 53.2426 62.7264 53.1477 62.7098 53.0257 62.6872 52.8751 62.9208 52.7237 63.1051 52.5075 63.2176 52.253 63.3301 51.9985 63.366 51.7166 63.3207 51.442 63.2755 51.1674 63.1512 50.912 62.9629 50.707 62.7747 50.502 62.5308 50.3563 62.261 50.2878ZM37.4523 57.7485C37.5291 57.7545 42.0472 58.7003 48.4688 58.6099L48.4688 58.6099 48.9764 58.6099C49.3408 58.6054 49.6721 58.5918 49.9598 58.5768L49.9598 58.5768 50.2324 58.5647 50.5487 58.5512C50.9282 58.5286 51.145 58.5045 51.145 58.5045L51.145 58.5045 50.9041 58.4909 50.7444 58.4834 50.5517 58.4729 49.5592 58.4277 48.9914 58.4036C41.6735155 58.0566241 39.7353867 57.8948265 38.1147616 57.7891675L37.9252593 57.7769883C37.8623767 57.7730097 37.799677 57.7691096 37.736855 57.7652803L37.5477168 57.753997 37.5477168 57.753997ZM61.2175 52.1688C60.7265 51.6282 61.3018 50.821 62.0006 51.0258 62.105 51.0524 62.2017 51.1031 62.283 51.1737 62.3643 51.2444 62.428 51.3331 62.469 51.4327 62.5099 51.5323 62.527 51.6401 62.5189 51.7475 62.5108 51.855 62.4777 51.959 62.4223 52.0514 62.1377 51.7893 61.4328 51.8676 61.2175 52.1688ZM60.1613 35.5864C65.7758 35.0367 70.2035 36.0111 73.2246 37.1044 71.8785 36.7824 70.5125 36.55 69.1357 36.4087 68.3089 36.3213 67.6176 36.2701 67.1387 36.237 66.714 36.2144 66.4489 36.1963 66.3947 36.1963 66.4565 36.2159 66.711 36.2791 67.1086 36.38 71.5092 37.499 76.1538 39.3694 78.9821 42.919 71.4083 44.5967 67.1944 44.9852 63.7908 45.4069 63.8056324 45.4057649 65.9369785 45.3028644 68.3044022 45.1223377L68.8146354 45.0824741 68.8146354 45.0824741 69.3279838 45.0402869C69.7559299 45.0041775 70.1828378 44.9657027 70.598 44.925L70.598 44.925 70.6116 44.925C73.2833 44.6599 75.336 44.416 78.4038 43.9506 68.2878 45.7156 49.949 47.571 39.6191 47.4565 40.3827 46.4942 42.7366 43.538 43.6402 42.672 43.7065 42.5997 43.7758 42.535 43.833 42.4687 44.9068 41.4145 50.3496 36.5487 60.1613 35.5864ZM40.2425 42.6028C38.1898 42.9838 33.5708 43.7398 31.7967 45.1434 31.637 45.2483 31.5147 45.4012 31.4473 45.5801 31.44 45.6401 31.455 45.7007 31.4895 45.7503 32.0076 46.4822 34.8645 46.8828 35.7515 47.0048 37.3434 47.2126 38.4022 47.2578 38.5256 47.2683 37.7583 47.3619 36.9854 47.4027 36.2124 47.3903 35.0712 47.3743 33.9335 47.2605 32.8118 47.0499 32.1732 46.8903 31.3058 46.6825 30.9052 46.1253 30.6642 45.7714 30.744 45.3723 31.0166 45.0274 31.4639 44.4807 32.3088 44.0756 32.9594 43.8 34.1567 43.3076 35.9338 42.9446 37.4398 42.7699 38.3693 42.6522 39.3056 42.5964 40.2425 42.6028ZM67.3179 44.2292C65.442796 44.3832747 62.1728689 44.6771313 58.8099926 44.9849248L57.7274683 45.0841836C52.4351341 45.5702819 47.2577187 46.0575 47.2471 46.0575 51.5393 45.931 52.8947 45.818 57.3074 45.4551 61.4780667 45.0294333 62.1427333 44.9678556 63.7185852 44.7465148L64.0472135 44.6999613C64.791236 44.5938073 65.7616556 44.4510956 67.3179 44.2292ZM68.9987 37.6827C68.9987 37.6827 69.1041 37.7219 69.2999 37.7866 70.3807 38.1342 71.4373 38.5533 72.4625 39.0411 73.5775 39.5788 74.653 40.1948 75.6809 40.8844L75.6809 40.8844C75.4134 40.6091 75.1265 40.3549 74.8224 40.1224 73.3738 39.0101 71.699 38.2287 69.9158 37.8333 69.3917 37.7234 69.214 37.7173 68.9987 37.6827Z"/><path fill="#011163" fill-rule="nonzero" d="M94.521,76.9001 C93.256,73.7119 91.193,68.5057 90.467,64.1248 L90.482,64.1248 L90.342,63.2694 L90.3,62.9321 L90.283,62.9321 C90.214,62.5305 90.142,62.1395 90.068,61.7589 L90.107,61.7394 C91.414,59.3298 91.463,56.5181 91.509,54.1266 C91.58,50.1568 93.086,43.8859 92.404,40.3167 C92.163,39.0803 91.048,37.5412 87.124,37.1918 C84.398,36.9494 80.8421,37.2731 78.1313,37.6527 C76.0846,36.4087 69.6463,33.1091 60.0108,34.0549 C50.3753,35.0006 44.7021,39.4869 42.9355,41.1044 C42.3331,41.139 41.4159,41.1992 40.3436,41.3047 C36.5063,41.6812 29.4295,42.6179 29.4580136,46.4913 C29.4686,48.7231 30.4732,51.7261 31.4566,54.6823 C32.0891,56.5663 32.687,58.3584 33.0123,59.8644 C33.4641,61.9728 34.0063,64.4215 35.3933,66.429 C34.3647,71.8505 32.8677,74.0975 31.1765,79.0958 L30.6494,80.659 C32.0153,79.7073 32.0485,79.6786 32.2578,79.5401 C32.0289,80.5145 32.05,81.8399 33.0108,83.4229 L33.8617,84.8249 L33.9957,83.4089 C34.2912,84.6849 34.9016,85.8659 35.7714,86.8439 L37.2939,88.5519 L36.7548,86.5369 C37.3572,87.5289 38.1704,88.3939 39.1915,88.8699 L40.684,89.5669 C39.7804,87.9099 39.6674,87.7059 39.5229,87.3919 C41.3497,88.5839 43.4882,89.1509 45.3828,89.5929 L45.4641,89.6109 C47.812,90.1539 48.068,90.0899 48.5409,90.1689 L48.9024,90.2329 L48.9144,90.2129 C56.1102,91.1769 66.2849,91.0069 73.4159,90.3529 C73.4438,90.3509 73.4715,90.3469 73.4988,90.3409 C74.0891,90.2819 76.0409,90.1679 78.3933,89.7749 C80.6976,89.3889 83.948,88.6409 86.435,87.2509 L86.446,87.2509 C86.526,87.2029 86.821,87.0409 87.181,86.7989 C86.821,87.9719 86.458,88.4059 85.857,89.5699 L87.354,88.8669 C88.36,88.3939 89.173,87.5349 89.771,86.5459 L89.124,88.5999 L90.762,86.8409 C91.639,85.8549 92.253,84.6639 92.548,83.3769 L92.699,84.7719 L93.53,83.4079 C94.324,82.1059 94.57,80.8021 94.268,79.516 L95.874,80.5852 C95.295,78.9753 95.619,79.6666 94.521,76.9001 Z M83.711,38.2249 C85.178,38.1075 86.996,38.109 88.301,38.365 C88.991,38.5065 89.908,38.7445 90.452,39.1918 C90.78,39.4719 90.838,40.0863 90.768,40.246 C90.255,41.3709 87.529,42.1269 86.326,42.404 C85.656,42.561 84.979,42.6831 84.297,42.77 C83.801,42.8332 83.515,42.8468 83.515,42.8468 C83.737,42.7835 84.72,42.5456 86.187,42.0486 C87.187,41.7038 89.229,40.9794 89.963,40.2188 C90.067,40.1149 90.184,39.9538 90.131,39.8152 C90.107,39.7189 89.917,39.5637 89.71,39.4598 C87.693,38.4388 83.199,38.5743 80.931,38.6089 C81.8482,38.4198 82.777,38.2915 83.711,38.2249 Z M43.6388,42.6736 C43.7051,42.6013 43.7744,42.5366 43.8316,42.4703 C44.9054,41.4161 50.3482,36.5503 60.1599,35.5879 C65.7744,35.0383 70.2021,36.0126 73.2232,37.106 C71.8771,36.784 70.5111,36.5516 69.1343,36.4102 C68.3075,36.3229 67.6162,36.2717 67.1373,36.2385 C66.7126,36.2159 66.4475,36.1979 66.3933,36.1979 C66.4551,36.2174 66.7096,36.2807 67.1072,36.3816 C71.5078,37.5051 76.1524,39.371 78.9792,42.9236 C71.4054,44.6013 67.1915,44.9898 63.7879,45.4115 C63.8075,45.4115 67.5229,45.2323 70.5951,44.9296 L70.6087,44.9296 C73.2744,44.6645 75.3331,44.4205 78.4009,43.9552 C68.2849,45.7202 49.946,47.5696 39.6162,47.4611 C40.3813,46.4958 42.7277,43.5395 43.6388,42.6736 Z M30.9054,46.1193 C30.6644,45.7654 30.7442,45.3663 31.0168,45.0214 C31.4686,44.4748 32.309,44.0696 32.9596,43.7941 C34.1569,43.3016 35.9295,42.9387 37.44,42.764 C38.3697,42.6482 39.306,42.5944 40.2427,42.6028 C38.19,42.9838 33.571,43.7398 31.797,45.1434 C31.6382,45.2468 31.516,45.3975 31.4476,45.5741 C31.4402,45.6341 31.4552,45.6947 31.4897,45.7443 C32.0078,46.4762 34.8647,46.8768 35.7518,46.9988 C37.3436,47.2066 38.4024,47.2518 38.5259,47.2623 C37.7585,47.356 36.9856,47.3967 36.2126,47.3843 C35.0714,47.3684 33.9337,47.2545 32.812,47.044 C32.1735,46.8843 31.306,46.6765 30.9054,46.1193 Z M46.568,79.2253 C41.9732,79.2645 39.7081,77.7721 39.678,74.1682 C39.6913,73.1048 39.9182,72.055 40.3451,71.081 L46.7593,72.3565 C46.4991,72.8466 46.3476,73.3869 46.3151,73.9408 C46.2826,74.4947 46.37,75.049 46.5711,75.5661 C46.7723,76.0832 47.0825,76.5508 47.4808,76.9371 C47.879,77.3235 48.3559,77.6194 48.8788,77.8048 C49.4018,77.9901 49.9586,78.0606 50.5112,78.0113 C51.0639,77.962 51.5994,77.7942 52.0813,77.5192 C52.5632,77.2443 52.9802,76.8687 53.3038,76.418 C53.6274,75.9673 53.8501,75.4522 53.9566,74.9077 C53.9747,74.9664 53.9897,75.0251 54.0063,75.0839 C54.2347,75.8759 54.3562,76.6949 54.3677,77.5191 C54.3948,80.0943 51.1584,79.1877 46.5635,79.2253 L46.568,79.2253 Z M55.5198,90.2329 C51.3647,90.0429 49.3346,89.7129 48.6418,89.6299 C50.3135,86.8559 52.7985,83.8939 53.3903,82.8669 C53.3159,83.0099 53.2319,83.1479 53.1388,83.2799 C55.4822,80.0913 57.7834,76.9543 58.6177,75.7495 C60.812,73.2707 61.8015,71.2873 61.2111,69.7527 C61.7352,69.6985 62.2688,69.6392 62.812,69.575 C64.4099,72.587 65.9747,75.5748 67.3979,78.2796 C68.1072,79.635 72.2864,87.6479 73.0831,89.2299 C73.0831,89.2389 73.0831,89.2429 73.0966,89.2519 C73.1102,89.2609 73.0801,89.2129 73.3813,89.8159 C67.4409,90.3339 61.4735,90.4739 55.5153,90.2329 L55.5198,90.2329 Z M79.9822,79.2253 C75.3888,79.1877 72.1509,80.0943 72.1733824,77.5206 C72.1889,76.6929 72.3145,75.8709 72.547,75.0764 C72.5635,75.0176 72.5786,74.9589 72.5966,74.9001 C72.7025,75.4569 72.9296,75.9834 73.2621,76.4424 C73.5945,76.9013 74.024,77.2814 74.5199,77.5555 C75.0159,77.8297 75.5662,77.9911 76.1317,78.0285 C76.6971,78.0658 77.2639,77.9781 77.7916,77.7715 C78.3193,77.565 78.795,77.2447 79.1849,76.8334 C79.5747,76.4221 79.8692,75.93 80.0473,75.392 C80.2254,74.8541 80.2827,74.2835 80.2152,73.7208 C80.1478,73.1581 79.9571,72.6173 79.6569,72.1367 L79.7503,72.1186 L86.1,70.8566 C86.591,71.893 86.853,73.023 86.868,74.1697 C86.838,77.7721 84.573,79.2645 79.9777,79.2253 L79.9822,79.2253 Z M89.952,44.5666 C89.451,46.663 88.922,48.6599 88.261,50.6628 C85.134,51.848 81.5816,52.4504 78.321,53.0724 L77.5289,53.223 L77.4204,53.2441 L77.315,53.2637 L77.1644,53.2938 L77.0424,53.3164 L76.9265,53.3405 L76.812,53.3631 C77.2819,53.3134 77.7864,53.2968 79.5786,53.0619 C82.481,52.6884 85.484,52.092 88.163,50.9399 C87.343,53.4666 86.263,55.9012 84.94,58.2048 C84.764,58.2575 83.3,58.6822 82.878,58.7982 C82.695,58.8494 82.509,58.8991 82.321,58.9488 C81.946,59.0482 81.568,59.143 81.1795,59.2334 C80.8391,59.3187 80.5003,59.4006 80.1629,59.4789 L79.9024,59.5376 C79.565,59.6144 79.2322,59.6882 78.9084,59.7545 C78.4942,59.8343 78.0997,59.9156 77.7262,59.9894 L77.687,59.9894 C77.4144,60.0436 77.1509,60.0933 76.9054,60.131 C76.315,60.2334 75.8286,60.3267 75.4807,60.381 L75.3421,60.4036 L75.2216,60.4246 L75.1012,60.4457 L75.062,60.4457 L74.934,60.4683 L75.1012,60.4593 L75.2683,60.4593 L75.4882,60.4502 L75.6388,60.4412 C75.9807,60.4186 76.428,60.3915 76.9475,60.3328 C77.2488,60.2981 77.5695,60.2605 77.9114,60.2153 L78.3271,60.1566 L78.3753,60.1566 C78.5741,60.128 78.7759,60.0963 78.9777,60.0602 C79.1795,60.024 79.3512,59.9909 79.5409,59.9533 C79.7307,59.9156 79.922,59.878 80.1147,59.8373 C80.5003,59.7575 80.8903,59.6716 81.2789,59.5828 C81.6674,59.4939 82.05,59.378 82.426,59.2711 C82.684,59.1973 82.936,59.1205 83.179,59.0482 C83.732,58.8825 84.283,58.6912 84.732,58.5226 C84.145,59.4972 83.501,60.4361 82.803,61.3343 L82.794,61.3463 C81.7599,62.6803 80.5905,63.9036 79.3045,64.9968 C78.9174,65.1354 78.5153,65.2784 78.0997,65.42 C77.684,65.5615 77.2623,65.7031 76.8346,65.8386 C76.5394,65.939 76.2452,66.0329 75.9521,66.1203 C75.7563,66.1805 75.562,66.2407 75.3677,66.298 C74.3512,66.5992 73.3798,66.8702 72.571,67.0826 L72.3557,67.1383 C72.0726,67.2121 71.812,67.2784 71.5816,67.3356 L71.3602,67.3913 L71.1087,67.4531 C70.69,67.5555 70.4415,67.6127 70.4415,67.6127 L70.9174,67.5811 L70.9491,67.5811 L71.172,67.5645 L71.2141,67.5645 L71.6418,67.5314 L71.8662,67.5133 C72.0982,67.4952 72.3542,67.4726 72.6298,67.4485 C73.1855,67.3988 73.8195,67.3356 74.4972,67.2603 C74.7663,67.2302 75.0429,67.198 75.3271,67.1639 L75.7533,67.1112 L76.321,67.0359 L64.6719,68.8943 C63.9812,69.0047 63.2889,69.1051 62.5951,69.1955 C62.0695,69.2633 61.5409,69.3235 61.0153,69.3792 L60.6599,69.4169 C59.9892,69.4831 59.3175,69.5388 58.6448,69.584 C57.9722,69.6292 57.2995,69.6643 56.6268,69.6894 L56.059,69.7045 L56.0349,69.7045 C55.7744,69.7045 55.5123,69.7166 55.2518,69.7196 L55.1479,69.7196 L54.6072,69.7271 L54.3858,69.7271 C54.1087,69.7271 53.8316,69.7271 53.5545,69.7271 C52.9686,69.7271 52.3843,69.7 51.7985,69.6759 L51.2683,69.6518 L51.1057,69.6518 L50.9551,69.6518 C50.1519,69.6066 49.3487,69.5449 48.5454,69.4666 L48.0771,69.4199 C45.818,69.1819 41.4777,68.5901 39.4566,67.5434 C39.3195,67.4726 39.1855,67.3928 39.056,67.322 C41.4099,68.0208 43.9792,68.4937 47.4897,68.6262 L47.5876,68.6262 C47.2864,68.5585 44.0304,68.2527 40.5515,67.0118 C39.94,66.7934 39.3241,66.5495 38.7337,66.2919 C38.2352,66.0721 37.9912,65.9501 37.7156,65.8176 C37.5334,65.7302 37.318,65.6218 37.0454,65.4772 C36.7636,65.0859 36.5147,64.6718 36.3015,64.2393 L36.2698,64.176 C36.2141,64.0616 36.1584,63.9441 36.1057,63.8251 C36.0274,63.6505 35.9551,63.4697 35.8828,63.2875 C35.8587,63.2227 35.8316,63.158 35.8075,63.0917 C35.3842,61.8712 35.044,60.6234 34.7894,59.3569 C34.7457,59.1611 34.6976,58.9608 34.6388,58.7545 C34.3497,57.6069 33.943,56.3449 33.5093,55.0513 C33.3361,54.5347 33.1584,54.0122 32.9822,53.4926 C31.7262,49.7728 31.6448,49.0996 31.5485,48.7593 C34.9626,49.7969 38.4235,49.8451 41.9701,49.559 C41.7789,49.5454 39.0319,49.5936 36.2051,49.1072 C35.1108,48.9217 34.0331,48.6493 32.9822,48.2924 C42.5921,50.1132 72.2322,46.6855 82.27,44.5772 C80.4852,45.2142 78.4385,45.8075 76.5861,46.2669 C74.4867,46.7879 73.0319,47.0199 72.3692,47.1509 C75.4762,47.0605 75.571,47.0906 78.6117,46.806 C77.9024,46.8497 83.817,46.4325 89.945,44.5681 L89.952,44.5666 Z"/><path fill="#011163" fill-rule="nonzero" d="M54.4574 86.0639C54.5387 86.0659 54.6246 86.0759 54.7134 86.0759L54.7134 86.0759 54.7737 86.0759C54.8505 86.0819 54.9303 86.0909 55.0116 86.1019L55.0116 86.1019 55.0418 86.1019C55.4193 86.1529 55.7935 86.2269 56.1622 86.3229 56.3008 86.3579 56.4348 86.3919 56.5598 86.4269 56.7104 86.4689 56.843 86.5099 56.9649 86.5489 57.0583 86.5789 57.1442 86.6089 57.2255 86.6379L57.2255 86.6379 57.3113 86.6709C57.5884 86.7779 57.7978 86.8819 58.0131 86.9889 58.4737 87.2199 58.9522 87.4139 59.4439 87.5689 59.5915 87.6179 59.736 87.6649 59.8776 87.7099L59.8776 87.7099 59.9363 87.7269C60.0583 87.7639 60.1788 87.8019 60.2993 87.8369L60.2993 87.8369 60.4092 87.8669 60.7104 87.9499 60.8791 87.9919 61.1186 88.0519 61.3655 88.1089 61.5282 88.1469 61.8294 88.2099 61.9484 88.2359C62.224 88.2929 62.5252 88.3489 62.8264 88.4029L62.8264 88.4029 62.8701 88.4029 62.9424 88.4129 62.9544 88.4129 63.0116 88.4219 63.0613 88.4299 63.1306 88.4399 63.1442 88.4399 63.215 88.4509 63.4032 88.4509 63.4032 88.4509 63.4032 88.6499 63.3241341 88.6503956C63.2924286 88.6539816 63.1546857 88.6724714 62.965 88.6939L62.965 88.6939 62.8144 88.7119 62.7255 88.7119C62.5659 88.7249 62.3881 88.7479 62.2149 88.7479 61.7722 88.7699 61.3309 88.7759 60.8595 88.7569 60.3553 88.7369 59.8525 88.6899 59.3535 88.6149 58.843 88.5499 58.2737 88.4499 57.6201 88.3139L57.6201 88.3139 57.4815 88.2839 57.4017 88.2669 57.2586 88.2309 57.2466 88.2309C57.1703 88.2119 57.0965 88.1909 57.0252 88.1679L57.0252 88.1679 56.9198 88.1329 56.8128 88.0959 56.7993 88.0959C56.7099 88.0589 56.615 88.0189 56.5146 87.9739L56.5146 87.9739 56.4544 87.9439C56.3901 87.9129 56.3239 87.8799 56.2556 87.8439L56.2556 87.8439 56.2059 87.8139 56.0433 87.7189 55.9529 87.6629 55.7571 87.5349 55.6065 87.4309 55.4906 87.3469C55.2833 87.1879 55.0885 87.0129 54.9077 86.8249L54.9077 86.8249 54.8957 86.8139C54.8038 86.7269 54.7315 86.6349 54.6532 86.5409L54.6532 86.5409 54.6216 86.5019C54.5402 86.4009 54.4619 86.2989 54.3896 86.1919L54.3896 86.1919ZM63.2288 77.9753C65.018 77.9407 66.2499 77.6124 66.9577 79.2133 67.6655 80.8141 66.3297 81.2177 66.0978 81.3337 65.8659 81.4496 65.1354 81.9889 64.9743 82.4439 64.8131 82.8989 64.6851 83.6109 63.3387 83.6379 61.9924 83.6649 61.8357 82.9569 61.658 82.5099 61.4803 82.0629 60.7288 81.5521 60.4924 81.4436 60.2559 81.3352 58.905 80.9858 59.5496 79.3578 60.1761 77.7766 61.3824 77.9753 63.2288 77.9753ZM67.4699 58.2816C67.4447 58.2516 67.4127 58.228 67.3765 58.2128 67.3404 58.1977 67.3011 58.1913 67.2621 58.1943 67.2621 58.1943 67.2334 58.1943 67.2184 58.2033 67.1744 58.2158 67.135 58.2408 67.1051 58.2753 67.0751 58.3098 67.0559 58.3523 67.0497 58.3976 66.9096 59.6581 65.872 60.4141 65.863 60.4201 65.8268 60.4475 65.7991 60.4845 65.7831 60.527 65.7665 60.5686 65.7623 60.6141 65.7711 60.6581 65.7794 60.693 65.7959 60.7256 65.8193 60.7529 65.8341 60.7708 65.8513 60.7865 65.8705 60.7996 65.8964 60.8186 65.9263 60.8314 65.9578 60.8373L65.9955 60.8373C66.1353 60.8659 66.2775 60.8805 66.4202 60.8809 66.1905 61.2117 65.9151 61.5083 65.6024 61.7619 65.494 61.8508 65.381 61.9381 65.2606 62.021L65.2425 62.033C65.1981 62.0622 65.1512 62.0874 65.1024 62.1083 65.0643 62.1255 65.025 62.1401 64.9849 62.152 64.9518 62.161 64.9172 62.1685 64.8825 62.1746 64.8479 62.1806 64.8449 62.1821 64.8253 62.1836 64.7707 62.1881 64.7158 62.1881 64.6611 62.1836 64.6058 62.1785 64.5509 62.1689 64.497 62.155 64.4454 62.1404 64.3951 62.1218 64.3464 62.0993 64.2509 62.0547 64.1638 61.9941 64.0889 61.9201L64.0693 61.9035C63.9416 61.77 63.8602 61.5989 63.8374 61.4156 63.8238 61.3116 63.8102 61.2047 63.7952 61.0978 63.6928 60.3343 63.5768 59.4713 63.4578 58.5949L63.4353 58.4292C63.4232 58.3418 63.4111 58.253 63.4006 58.1656 63.2982 57.4127 63.241 56.9865 63.2108 56.7681 63.1898 56.6175 63.125 56.1281 62.9639 54.9308L63.2425 54.9037C63.3883 54.8943 63.5332 54.8747 63.6762 54.845 63.9321 54.782 64.1836 54.7025 64.4292 54.607 64.5395 54.5713 64.6341 54.4986 64.6969 54.4011 64.7598 54.3037 64.787 54.1876 64.7741 54.0724 64.7319 53.839 64.7877 53.6206 64.5949 53.4218 64.5128 53.3412 64.4074 53.2885 64.2937 53.2712 63.7772 53.1737 63.2477 53.1671 62.7289 53.2516 62.7169 53.1567 62.7003 53.0393 62.6777 52.8842 62.9102 52.7317 63.0933 52.5148 63.2045 52.26 63.3158 52.0052 63.3503 51.7234 63.304 51.4493 63.2577 51.1751 63.1325 50.9204 62.9437 50.7163 62.7549 50.5122 62.5107 50.3675 62.241 50.2999 61.1943 49.9987 60.1431 50.8074 60.238 51.845 60.2621 52.0728 60.34 52.2917 60.4651 52.4836 60.5902 52.6755 60.7591 52.8349 60.9578 52.9489 61.0144 52.9827 61.0733 53.0124 61.134 53.0378 61.134 53.1462 61.1506 53.348 61.1551 53.4067 60.7831 53.4775 60.6461 53.3616 59.6235 53.732 59.5664 53.754 59.5127 53.7839 59.4639 53.8209 59.3978 53.8752 59.3457 53.9446 59.3119 54.0232 59.2781 54.1018 59.2636 54.1873 59.2696 54.2727L59.3027 54.6221C59.3083 54.6933 59.3294 54.7624 59.3645 54.8245 59.3996 54.8867 59.4479 54.9405 59.506 54.982 59.577 55.0331 59.6591 55.0667 59.7455 55.0799 59.8328 55.0934 59.9729 55.1145 60.1295 55.1311 60.256 55.1446 60.3931 55.1567 60.5226 55.1612 60.5738 55.1612 60.6235 55.1612 60.6732 55.1612 60.7229 55.1612 60.7621 55.1612 60.8012 55.1612L61.253 55.116C61.2666 55.3555 61.2816 55.607 61.2967 55.869 61.3118 56.1311 61.3283 56.3991 61.3449 56.6747 61.3615 56.9503 61.3795 57.2319 61.3961 57.5166 61.4533 58.4458 61.5121 59.4066 61.5663 60.2981 61.5964 60.7725 61.6235 61.2288 61.6506 61.6535 61.6558 61.7436 61.6477 61.8339 61.6265 61.9216 61.6175 61.9547 61.6084 61.9893 61.5964 62.021 61.5562 62.1256 61.4959 62.2213 61.4187 62.3026L61.4112 62.3116C61.3765 62.347 61.3393 62.3797 61.2997 62.4095L61.2711 62.4306C61.2369 62.454 61.2011 62.4751 61.1642 62.4938L61.1115 62.5194C61.0213 62.5602 60.9252 62.5861 60.8268 62.5963 60.7882 62.5985 60.7495 62.5985 60.7109 62.5963 60.6602 62.5941 60.6098 62.5875 60.5602 62.5767L60.5497 62.5767C60.4893 62.5633 60.4303 62.5441 60.3735 62.5194 59.8717 62.3056 59.4126 62.0031 59.0181 61.6264 59.1686 61.5964 59.3155 61.5504 59.4563 61.4894 59.4783 61.4805 59.4991 61.4689 59.5181 61.4547 59.5542 61.4258 59.5814 61.3871 59.5964 61.3433 59.6039 61.3214 59.6085 61.2986 59.6099 61.2755 59.6093 61.2387 59.6001 61.2026 59.5828 61.1701 59.558 61.1222 59.5184 61.0837 59.4699 61.0602 59.3306 60.9921 59.1976 60.9119 59.0723 60.8207 59.0351 60.7956 58.996 60.767 58.9548 60.7349 58.8187 60.6304 58.6908 60.5156 58.5723 60.3915 58.2734 60.0856 58.0487 59.7151 57.9157 59.3087 57.903 59.2734 57.8818 59.2419 57.8539 59.2168 57.8125 59.1786 57.7595 59.1553 57.7033 59.1506 57.6888 59.1513 57.6742 59.1513 57.6596 59.1506 57.6204 59.1548 57.5828 59.1688 57.5502 59.1911 57.5176 59.2134 57.4911 59.2435 57.4729 59.2786 57.2538 59.7322 57.1503 60.233 57.1717 60.7364 57.1789 61.0221 57.2188 61.3061 57.2907 61.5827 57.3808 61.9197 57.5118 62.2444 57.6807 62.5496 57.7009 62.5841 57.7294 62.613 57.7636 62.6338 57.7978 62.6546 57.8366 62.6665 57.8765 62.6685 57.8895 62.6708 57.9027 62.6708 57.9157 62.6685 57.9501 62.6647 57.9834 62.6535 58.0132 62.6359 58.0431 62.6182 58.0689 62.5945 58.0889 62.5661L58.1009 62.5496C58.1204 62.5232 58.138 62.4956 58.1536 62.4667 58.2715 62.6496 58.4094 62.8189 58.5648 62.9712 58.6401 63.0465 58.7154 63.1218 58.7907 63.1821 59.3148 63.6339 59.8253 63.8778 60.4081 64.1504L60.4759 64.1821C60.6265 64.2543 60.7861 64.3327 60.9518 64.4125 61.6749 64.7717 62.3537 65.2139 62.9744 65.7302 63.0004 65.7495 63.0294 65.7642 63.0602 65.7739 63.0905 65.7829 63.1222 65.786 63.1536 65.7829 63.2176 65.7759 63.2766 65.7453 63.3193 65.6971 63.6861 65.2469 64.0891 64.8273 64.5241 64.4426 64.616 64.3628 64.7048 64.292 64.7922 64.2152 64.9232 64.1083 65.0497 64.0089 65.1732 63.914L65.2952 63.8221 65.5316 63.6459C65.6476 63.5616 65.7605 63.4773 65.8705 63.3944 66.3547 63.05 66.7743 62.6227 67.1099 62.1324 67.2296 61.9508 67.3305 61.7576 67.4111 61.5556L67.4458 61.5933 67.4729 61.6204 67.494 61.6384C67.5066 61.6512 67.5208 61.6623 67.5362 61.6716 67.5505 61.681 67.5663 61.6881 67.5828 61.6927 67.6157 61.7042 67.6506 61.7083 67.6852 61.7047 67.6968 61.7038 67.708 61.7008 67.7184 61.6957 67.7573 61.6877 67.7934 61.6696 67.8231 61.6432 67.8527 61.6167 67.8748 61.5829 67.8871 61.5451 67.8884 61.5428 67.8891 61.5402 67.8891 61.5375 67.8891 61.5349 67.8884 61.5323 67.8871 61.53 68.1779 60.6719 68.1463 59.7371 67.7982 58.9006 67.7145 58.6816 67.6043 58.4737 67.4699 58.2816ZM62.4172 52.0483C62.1371 51.7863 61.4322 51.8661 61.2124 52.1658 60.7214 51.6282 61.2967 50.818 61.9955 51.0228 62.1003 51.0493 62.1975 51.1 62.2791 51.1708 62.3608 51.2417 62.4247 51.3307 62.4657 51.4307 62.5067 51.5308 62.5237 51.639 62.5153 51.7468 62.5068 51.8546 62.4732 51.9589 62.4172 52.0514L62.4172 52.0483ZM37.4521 57.7605C37.547919 57.7659569 37.6424321 57.7715465 37.7366697 57.7772951L37.925083 57.789012 37.925083 57.789012 38.1145936 57.8011995C39.7352867 57.9069265 41.6734155 58.0687241 48.9913 58.4157L48.9913 58.4157 49.5591 58.4397 50.5515 58.4849 50.7443 58.4955 50.91 58.5105 51.151 58.5241C51.151 58.5241 50.9281 58.5361 50.5485 58.5632L50.5485 58.5632 50.2323 58.5768 49.9597 58.5888C49.672 58.6039 49.3407 58.622 48.9763 58.622L48.9763 58.622 48.4687 58.622C42.047 58.7123 37.529 57.7605 37.4521 57.7605ZM67.3188 44.2308C65.8822667 44.4368 64.9448978 44.5745902 64.2239935 44.6780082L63.7194852 44.7496556C62.1436333 44.9705222 61.4789667 45.0294333 57.3083 45.4551 52.8956 45.8181 51.5402 45.9325 47.248 46.059 47.2586187 46.05812 52.4360686 45.5710545 57.7284109 45.0852528L58.4503317 45.0190607 58.4503317 45.0190607 59.17083 44.953159C62.4056021 44.6576664 65.5107 44.379336 67.3188 44.2308ZM68.9971 37.6843C69.2124 37.7174 69.3901 37.7234 69.9142 37.8349 71.6974 38.2303 73.3722 39.0116 74.8209 40.1239 75.125 40.357 75.4119 40.6116 75.6793 40.886 74.6514 40.1963 73.5759 39.5803 72.4609 39.0427 71.4357 38.5548 70.3792 38.1357 69.2983 37.7882 69.1055 37.7234 68.9971 37.6843 68.9971 37.6843Z"/></g></svg>